<svg xmlns="http://www.w3.org/2000/svg" xml:space="preserve" width="512px" height="512px" version="1.1" style="shape-rendering:geometricPrecision; text-rendering:geometricPrecision; image-rendering:optimizeQuality; fill-rule:evenodd; clip-rule:evenodd" viewBox="0 0 512 512" xmlns:xlink="http://www.w3.org/1999/xlink">
<defs>
<style type="text/css">
   
    .fil0 {fill:black}
   
  </style>
</defs>
<g id="Layer_x0020_1">
<metadata id="CorelCorpID_0Corel-Layer"></metadata>
<g id="_521359360">
<g>
<path class="fil0" d="M108 361c2,-1 4,-3 6,-4 33,-15 56,-27 100,-13l83 26c16,6 22,20 20,33 -1,2 -2,5 -3,8 34,-7 65,-26 104,-50 12,-7 24,-14 37,-22 10,-6 21,-7 31,-4 9,3 16,9 21,18 5,8 6,18 4,27 -2,10 -8,19 -18,24 -193,112 -250,101 -300,91 -23,-5 -45,-9 -81,1 0,-1 0,-1 0,-1l0 -119c0,-5 -2,-11 -4,-15zm22 116c1,0 1,0 2,0l-2 0z" id="id_101" style="fill: rgb(51, 51, 51);"></path>
</g>
<path class="fil0" d="M79 514l-60 0c-11,0 -19,-9 -19,-19l0 -119c0,-10 9,-19 19,-19l60 0c10,0 19,9 19,19l0 119c-1,10 -9,19 -19,19zm-30 -83c-12,0 -23,-11 -23,-23 0,-13 10,-23 23,-23 13,0 23,10 23,23 0,12 -11,23 -23,23zm0 -32c-5,0 -8,4 -8,9 0,4 3,8 8,8 5,0 8,-4 8,-8 0,-5 -3,-9 -8,-9z" id="id_102" style="fill: rgb(51, 51, 51);"></path>
</g>
<path class="fil0" d="M256 255c0,0 0,0 0,0 -1,0 -2,-1 -2,-1 -1,0 -1,0 -2,-1 -86,-63 -132,-137 -122,-195 4,-27 19,-46 41,-54 26,-10 57,-1 85,23 28,-24 58,-33 85,-23 23,8 38,27 42,55 9,58 -37,131 -122,194 -1,1 -1,1 -2,1 0,0 -2,1 -3,1zm20 -42c-2,0 -5,-1 -6,-2 -2,-3 -2,-8 1,-11 28,-24 49,-48 60,-72 2,-3 7,-5 10,-3 4,2 5,6 3,10 -12,25 -34,51 -64,76 -1,1 -3,2 -4,2zm-112 -105c-4,0 -7,-2 -7,-5 -5,-25 0,-48 14,-62 12,-12 30,-16 48,-12 4,1 7,5 6,9 -1,3 -5,6 -9,5 -14,-3 -26,0 -35,8 -11,11 -14,29 -11,49 1,3 -1,8 -5,8 0,0 -1,0 -1,0z" id="id_103" style="fill: rgb(51, 51, 51);"></path>
<path class="fil0" d="M393 322l0 0c-1,0 -2,0 -3,-1 0,0 0,0 -1,0 -34,-25 -52,-54 -48,-78 2,-12 9,-21 19,-24 10,-4 22,-2 33,7 11,-9 23,-11 34,-7 10,3 18,12 19,24 2,12 1,42 -48,78 0,0 0,0 -1,1 -2,0 -3,0 -4,0z" id="id_104" style="fill: rgb(51, 51, 51);"></path>
<path class="fil0" d="M103 322c0,0 0,0 0,0 -1,0 -2,0 -3,-1 0,0 -1,0 -1,0 -34,-25 -52,-54 -48,-78 1,-12 8,-21 18,-24 11,-4 23,-2 34,7 11,-9 23,-11 34,-7 10,3 17,12 19,24 1,12 0,42 -48,78 0,0 -1,0 -1,1 -2,0 -3,0 -4,0z" id="id_105" style="fill: rgb(51, 51, 51);"></path>
</g>
</svg>